# xmcd
#
# Track frame offsets:
#	150
#	14545
#	29282
#	43110
#
# Disc length: 729 seconds
#
# Revision: 1
# Processed by: cddbd v1.5.2PL0 Copyright (c) Steve Scherf et al.
# Submitted via: EasyCDDAExtractor 2011.0.0.0
#
DISCID=2b02d704
DTITLE=Bug.96 - Popcorn (Single)
DYEAR=1996
DGENRE=Dance
TTITLE0=Popcorn (Radio Edit)
TTITLE1=Warm Up
TTITLE2=Popcorn (Elevator Mix)
TTITLE3=Popcorn (Original Arrangement)
EXTD=
EXTT0=
EXTT1=
EXTT2=
EXTT3=
PLAYORDER=
